<svg width="24" height="24" viewBox="0 0 24 24" fill="none" xmlns="http://www.w3.org/2000/svg">
<path d="M10.8281 11.9531H13.1719V13.3594H10.8281V11.9531Z" fill="#FFD467"/>
<path d="M8.48438 3.51562H15.5156V4.92188H8.48438V3.51562Z" fill="#FFD467"/>
<path d="M21.8906 0H2.10938C0.944391 0 0 0.944391 0 2.10938V14.7656C0 15.9306 0.944391 16.875 2.10938 16.875H21.8906C23.0556 16.875 24 15.9306 24 14.7656V2.10938C24 0.944391 23.0556 0 21.8906 0ZM21.1406 14.0625C21.1406 14.4508 20.8258 14.7656 20.4375 14.7656H16.6875C16.2992 14.7656 15.9844 14.4508 15.9844 14.0625V11.25C15.9844 10.8617 16.2992 10.5469 16.6875 10.5469H17.8594V9.14062H12.7031V10.5469H13.875C14.2633 10.5469 14.5781 10.8617 14.5781 11.25V14.0625C14.5781 14.4508 14.2633 14.7656 13.875 14.7656H10.125C9.73669 14.7656 9.42188 14.4508 9.42188 14.0625V11.25C9.42188 10.8617 9.73669 10.5469 10.125 10.5469H11.2969V9.14062H6.14062V10.5469H7.3125C7.70081 10.5469 8.01562 10.8617 8.01562 11.25V14.0625C8.01562 14.4508 7.70081 14.7656 7.3125 14.7656H3.5625C3.17419 14.7656 2.85938 14.4508 2.85938 14.0625V11.25C2.85938 10.8617 3.17419 10.5469 3.5625 10.5469H4.73438V8.4375C4.73438 8.04919 5.04919 7.73438 5.4375 7.73438H11.2969V6.32812H7.78125C7.39294 6.32812 7.07812 6.01331 7.07812 5.625V2.8125C7.07812 2.42419 7.39294 2.10938 7.78125 2.10938H16.2188C16.6071 2.10938 16.9219 2.42419 16.9219 2.8125V5.625C16.9219 6.01331 16.6071 6.32812 16.2188 6.32812H12.7031V7.73438H18.5625C18.9508 7.73438 19.2656 8.04919 19.2656 8.4375V10.5469H20.4375C20.8258 10.5469 21.1406 10.8617 21.1406 11.25V14.0625Z" fill="#FFD467"/>
<path d="M4.26562 11.9531H6.60938V13.3594H4.26562V11.9531Z" fill="#FFD467"/>
<path d="M17.3906 11.9531H19.7344V13.3594H17.3906V11.9531Z" fill="#FFD467"/>
<path d="M12.7031 19.9022V18.2812H11.2969V19.9022C10.4785 20.1924 9.89062 20.974 9.89062 21.8906C9.89062 23.0537 10.8369 24 12 24C13.1631 24 14.1094 23.0537 14.1094 21.8906C14.1094 20.974 13.5215 20.1924 12.7031 19.9022ZM12 22.5938C11.6123 22.5938 11.2969 22.2783 11.2969 21.8906C11.2969 21.5029 11.6123 21.1875 12 21.1875C12.3877 21.1875 12.7031 21.5029 12.7031 21.8906C12.7031 22.2783 12.3877 22.5938 12 22.5938Z" fill="#FFD467"/>
</svg>
