<svg width="24" height="24" viewBox="0 0 24 24" fill="none" xmlns="http://www.w3.org/2000/svg">
<path d="M0 14.625V23.2969C0 23.6852 0.314812 24 0.703125 24H23.2969C23.6852 24 24 23.6852 24 23.2969V14.625H0ZM21.1406 21.1875C21.1406 21.5758 20.8258 21.8906 20.4375 21.8906H3.5625C3.17419 21.8906 2.85938 21.5758 2.85938 21.1875V17.4375C2.85938 17.0492 3.17419 16.7344 3.5625 16.7344H20.4375C20.8258 16.7344 21.1406 17.0492 21.1406 17.4375V21.1875Z" fill="white"/>
<path d="M4.26562 18.1406H19.7344V20.4844H4.26562V18.1406Z" fill="white"/>
<path d="M16.2188 0.703125C16.2188 0.314812 15.9039 0 15.5156 0H8.48438C8.09606 0 7.78125 0.314812 7.78125 0.703125V9.70312H16.2188V0.703125ZM14.8174 3.15234L11.5028 6.46692C11.371 6.59878 11.1922 6.67289 11.0057 6.67289C10.8192 6.67289 10.6403 6.59883 10.5085 6.46692L9.18272 5.14111C8.90812 4.86652 8.90812 4.42134 9.18272 4.14675C9.45727 3.87216 9.90248 3.87216 10.1771 4.14675L11.0057 4.97536L13.8231 2.15798C14.0977 1.88339 14.5429 1.88339 14.8175 2.15798C15.092 2.43258 15.092 2.8778 14.8174 3.15234Z" fill="white"/>
<path d="M22.0885 8.07455C21.9927 7.78739 21.7241 7.59375 21.4214 7.59375H17.6245V9.70312H18.0933C18.4816 9.70312 18.7964 10.0179 18.7964 10.4062C18.7964 10.7946 18.4816 11.1094 18.0933 11.1094H5.9058C5.51749 11.1094 5.20267 10.7946 5.20267 10.4062C5.20267 10.0179 5.51749 9.70312 5.9058 9.70312H6.37455V7.59375H2.57767C2.27505 7.59375 2.00636 7.78739 1.91064 8.07455L0.195862 13.2188H23.8032L22.0885 8.07455Z" fill="white"/>
</svg>
