<svg width="20" height="19" viewBox="0 0 20 19" fill="none" xmlns="http://www.w3.org/2000/svg">
<path d="M12.754 7C13.72 7 14.504 7.784 14.504 8.75V12H14.5V13H5.5V10H5.502V8.75C5.502 7.784 6.285 7 7.252 7H12.754Z" fill="#FFD467"/>
<path d="M20 8.75C20 8.28587 19.8156 7.84075 19.4874 7.51256C19.1592 7.18437 18.7141 7 18.25 7H14.875C15.268 7.475 15.504 8.085 15.504 8.75V10H15.5V13H19.25C19.4489 13 19.6397 12.921 19.7803 12.7803C19.921 12.6397 20 12.4489 20 12.25V8.75Z" fill="#FFD467"/>
<path d="M4.5 12H4.502V8.75L4.511 8.53C4.556 7.95 4.781 7.422 5.131 7H1.75L1.606 7.006C1.1683 7.04214 0.760189 7.24154 0.46268 7.56461C0.165171 7.88768 1.64046e-05 8.31081 0 8.75V12.25C0 12.664 0.336 13 0.75 13H4.5V12Z" fill="#FFD467"/>
<path d="M10 0C10.7956 0 11.5587 0.316071 12.1213 0.87868C12.6839 1.44129 13 2.20435 13 3C13 3.79565 12.6839 4.55871 12.1213 5.12132C11.5587 5.68393 10.7956 6 10 6C9.20435 6 8.44129 5.68393 7.87868 5.12132C7.31607 4.55871 7 3.79565 7 3C7 2.20435 7.31607 1.44129 7.87868 0.87868C8.44129 0.316071 9.20435 0 10 0Z" fill="#FFD467"/>
<path d="M16.5 1C17.163 1 17.7989 1.26339 18.2678 1.73223C18.7366 2.20107 19 2.83696 19 3.5C19 4.16304 18.7366 4.79893 18.2678 5.26777C17.7989 5.73661 17.163 6 16.5 6C15.837 6 15.2011 5.73661 14.7322 5.26777C14.2634 4.79893 14 4.16304 14 3.5C14 2.83696 14.2634 2.20107 14.7322 1.73223C15.2011 1.26339 15.837 1 16.5 1Z" fill="#FFD467"/>
<path d="M3.5 1C4.16304 1 4.79893 1.26339 5.26777 1.73223C5.73661 2.20107 6 2.83696 6 3.5C6 4.16304 5.73661 4.79893 5.26777 5.26777C4.79893 5.73661 4.16304 6 3.5 6C2.83696 6 2.20107 5.73661 1.73223 5.26777C1.26339 4.79893 1 4.16304 1 3.5C1 2.83696 1.26339 2.20107 1.73223 1.73223C2.20107 1.26339 2.83696 1 3.5 1Z" fill="#FFD467"/>
<path d="M0 14.75C0 14.5511 0.0790175 14.3603 0.21967 14.2197C0.360322 14.079 0.551088 14 0.75 14H19.25C19.4489 14 19.6397 14.079 19.7803 14.2197C19.921 14.3603 20 14.5511 20 14.75V15.25C20 16.2446 19.6049 17.1984 18.9017 17.9017C18.1984 18.6049 17.2446 19 16.25 19H3.75C2.75544 19 1.80161 18.6049 1.09835 17.9017C0.395088 17.1984 0 16.2446 0 15.25V14.75Z" fill="#FFD467"/>
</svg>
