<svg width="24" height="24" viewBox="0 0 24 24" fill="none" xmlns="http://www.w3.org/2000/svg">
<g clip-path="url(#clip0)">
<path d="M23.25 15.7969H20.4591L18.5415 8.12634C18.4633 7.81336 18.182 7.59375 17.8594 7.59375H17.625V6.0637C18.2452 5.79187 18.6797 5.17242 18.6797 4.45312C18.6797 3.48389 17.8911 2.69531 16.9219 2.69531C15.9526 2.69531 15.1641 3.48389 15.1641 4.45312C15.1641 5.17247 15.5986 5.79192 16.2188 6.0637V7.59375H15.9844C15.6617 7.59375 15.3805 7.81336 15.3022 8.12634L13.3846 15.7969H9.89062V24H12.7031V19.5469C12.7031 19.1586 13.0179 18.8438 13.4062 18.8438H23.9531V16.5C23.9531 16.1117 23.6383 15.7969 23.25 15.7969ZM15.8917 11.5667L17.4413 12.2309L15.2967 13.9465L15.8917 11.5667ZM16.5333 9H17.3104L17.7709 10.8422L16.2371 10.1849L16.5333 9ZM18.3805 13.2804L19.0096 15.7969H15.2349L18.3805 13.2804Z" fill="white"/>
<path d="M19.7344 20.2495H21.1406V23.9995H19.7344V20.2495Z" fill="white"/>
<path d="M22.5469 20.2495H23.9531V23.9995H22.5469V20.2495Z" fill="white"/>
<path d="M16.9219 20.2495H18.3281V23.9995H16.9219V20.2495Z" fill="white"/>
<path d="M14.1094 20.2495H15.5156V23.9995H14.1094V20.2495Z" fill="white"/>
<path d="M3.5625 20.2495H4.96875V23.9995H3.5625V20.2495Z" fill="white"/>
<path d="M7.78125 10.4062H0.75C0.361687 10.4062 0.046875 10.7211 0.046875 11.1094V23.2969C0.046875 23.6852 0.361687 24 0.75 24H2.15625V19.5469C2.15625 19.1586 2.47106 18.8438 2.85938 18.8438H5.67188C6.06019 18.8438 6.375 19.1586 6.375 19.5469V24H8.48438V11.1094C8.48438 10.7211 8.16956 10.4062 7.78125 10.4062ZM5.67188 17.4375H2.85938C2.47106 17.4375 2.15625 17.1227 2.15625 16.7344C2.15625 16.3461 2.47106 16.0313 2.85938 16.0313H5.67188C6.06019 16.0313 6.375 16.3461 6.375 16.7344C6.375 17.1227 6.06019 17.4375 5.67188 17.4375ZM5.67188 14.625H2.85938C2.47106 14.625 2.15625 14.3102 2.15625 13.9219C2.15625 13.5336 2.47106 13.2188 2.85938 13.2188H5.67188C6.06019 13.2188 6.375 13.5336 6.375 13.9219C6.375 14.3102 6.06019 14.625 5.67188 14.625Z" fill="white"/>
<path d="M19.865 6.95833C19.9654 7.00807 20.0718 7.0316 20.1767 7.0316C20.4355 7.0316 20.6845 6.88812 20.8073 6.64052C21.4859 5.27097 21.4859 3.63569 20.8073 2.26614C20.6348 1.91814 20.2129 1.77583 19.8651 1.94828C19.5171 2.12069 19.3748 2.54252 19.5472 2.89047C20.0321 3.86908 20.0321 5.03754 19.5472 6.0161C19.3748 6.36405 19.5171 6.78588 19.865 6.95833Z" fill="white"/>
<path d="M21.7972 8.79739C21.9137 8.87094 22.0435 8.906 22.1718 8.906C22.4051 8.906 22.6334 8.78994 22.7671 8.57802C24.3486 6.07203 24.3486 2.83348 22.7671 0.3275C22.5598 -0.000906482 22.1256 -0.0991565 21.7972 0.108125C21.4688 0.315359 21.3706 0.749609 21.5779 1.07797C22.8717 3.12805 22.8717 5.77737 21.5779 7.82745C21.3706 8.15591 21.4688 8.59016 21.7972 8.79739Z" fill="white"/>
<path d="M13.6664 7.03113C13.7713 7.03113 13.8777 7.0076 13.9781 6.95787C14.326 6.78546 14.4683 6.36359 14.2959 6.01563C13.811 5.03707 13.811 3.86862 14.2959 2.89001C14.4683 2.54206 14.326 2.12023 13.978 1.94782C13.6302 1.77532 13.2083 1.91763 13.0358 2.26568C12.3572 3.63523 12.3572 5.27051 13.0358 6.64006C13.1586 6.88765 13.4076 7.03113 13.6664 7.03113Z" fill="white"/>
<path d="M11.6719 8.90592C11.8002 8.90592 11.93 8.87086 12.0465 8.79731C12.3749 8.59007 12.4731 8.15582 12.2659 7.82747C10.9721 5.77739 10.9721 3.12806 12.2659 1.07798C12.4731 0.749621 12.3749 0.315371 12.0465 0.108136C11.7182 -0.0991451 11.2839 -0.000941932 11.0767 0.327511C9.49513 2.8335 9.49517 6.072 11.0767 8.57803C11.2104 8.78986 11.4386 8.90592 11.6719 8.90592Z" fill="white"/>
</g>
<defs>
<clipPath id="clip0">
<rect width="24" height="24" fill="white"/>
</clipPath>
</defs>
</svg>
