<svg width="24" height="24" viewBox="0 0 24 24" fill="none" xmlns="http://www.w3.org/2000/svg">
<path d="M21.4998 18H2.49985C2.10202 18 1.72049 18.158 1.43919 18.4393C1.15788 18.7206 0.999847 19.1022 0.999847 19.5C0.999847 19.8978 1.15788 20.2794 1.43919 20.5607C1.72049 20.842 2.10202 21 2.49985 21H21.4998C21.8977 21 22.2792 20.842 22.5605 20.5607C22.8418 20.2794 22.9998 19.8978 22.9998 19.5C22.9998 19.1022 22.8418 18.7206 22.5605 18.4393C22.2792 18.158 21.8977 18 21.4998 18Z" fill="white"/>
<path d="M11.9998 6.5C9.48029 6.5 7.06393 7.50089 5.28233 9.28248C3.50074 11.0641 2.49985 13.4804 2.49985 16V17C2.49985 17.1326 2.55253 17.2598 2.64629 17.3535C2.74006 17.4473 2.86724 17.5 2.99985 17.5H20.9998C21.1325 17.5 21.2596 17.4473 21.3534 17.3535C21.4472 17.2598 21.4998 17.1326 21.4998 17V16C21.4998 13.4804 20.499 11.0641 18.7174 9.28248C16.9358 7.50089 14.5194 6.5 11.9998 6.5Z" fill="white"/>
<path d="M13.5 3H10.5C10.1022 3 9.72064 3.15804 9.43934 3.43934C9.15804 3.72064 9 4.10218 9 4.5C9 4.89782 9.15804 5.27936 9.43934 5.56066C9.72064 5.84196 10.1022 6 10.5 6V7C10.5 7.13261 10.5527 7.25979 10.6464 7.35355C10.7402 7.44732 10.8674 7.5 11 7.5H13C13.1326 7.5 13.2598 7.44732 13.3536 7.35355C13.4473 7.25979 13.5 7.13261 13.5 7V6C13.8978 6 14.2794 5.84196 14.5607 5.56066C14.842 5.27936 15 4.89782 15 4.5C15 4.10218 14.842 3.72064 14.5607 3.43934C14.2794 3.15804 13.8978 3 13.5 3Z" fill="white"/>
</svg>
