<svg width="24" height="24" viewBox="0 0 24 24" fill="none" xmlns="http://www.w3.org/2000/svg">
<path d="M4.21875 10.6172H5.625V12.0234H4.21875V10.6172Z" fill="white"/>
<path d="M18.375 10.6172H19.7812V12.0234H18.375V10.6172Z" fill="white"/>
<path d="M11.2969 19.4766H12.7031V17.6484H14.5312V16.2422H12.7031V14.4141H11.2969V16.2422H9.46875V17.6484H11.2969V19.4766Z" fill="white"/>
<path d="M21.1875 10.6172V13.4297H16.9688V10.6172H7.03125V13.4297H2.8125V10.6172C2.01459 10.6172 0.788672 10.6172 0 10.6172V23.6953H24V10.6172C23.6495 10.6172 21.1875 10.6172 21.1875 10.6172ZM8.0625 14.8359H9.89062V13.0078H14.1094V14.8359H15.9375V19.0547H14.1094V20.8828H9.89062V19.0547H8.0625V14.8359Z" fill="white"/>
<path d="M18.4977 3.58594L16.2107 0.304688H7.78927L5.50233 3.58594H0V9.21094H24V3.58594H18.4977ZM8.52323 1.71094H15.4768L16.7835 3.58594H7.21645L8.52323 1.71094Z" fill="white"/>
</svg>
