<svg width="16" height="22" viewBox="0 0 16 22" fill="none" xmlns="http://www.w3.org/2000/svg">
<path d="M8 0.5V5.75C8 6.34674 8.23705 6.91903 8.65901 7.34099C9.08097 7.76295 9.65326 8 10.25 8H15.5V19.25C15.5 19.8467 15.2629 20.419 14.841 20.841C14.419 21.2629 13.8467 21.5 13.25 21.5H2.75C2.15326 21.5 1.58097 21.2629 1.15901 20.841C0.737053 20.419 0.5 19.8467 0.5 19.25V2.75C0.5 2.15326 0.737053 1.58097 1.15901 1.15901C1.58097 0.737053 2.15326 0.5 2.75 0.5H8Z" fill="#FFD467"/>
<path d="M9.5 0.875V5.75C9.5 5.94891 9.57902 6.13968 9.71967 6.28033C9.86032 6.42098 10.0511 6.5 10.25 6.5H15.125L9.5 0.875Z" fill="#FFD467"/>
</svg>
