<svg width="24" height="24" viewBox="0 0 24 24" fill="none" xmlns="http://www.w3.org/2000/svg">
<path d="M12 14.7268C13.5058 14.7268 14.7266 13.506 14.7266 12.0001C14.7266 10.4942 13.5058 9.27344 12 9.27344C10.4941 9.27344 9.27328 10.4942 9.27328 12.0001C9.27328 13.506 10.4941 14.7268 12 14.7268Z" fill="#FFD467"/>
<path d="M12 5.22021C10.659 5.22021 9.34817 5.61785 8.23321 6.36285C7.11824 7.10785 6.24923 8.16674 5.73607 9.40562C5.22291 10.6445 5.08864 12.0077 5.35025 13.3229C5.61186 14.6381 6.25759 15.8462 7.20579 16.7944C8.15399 17.7426 9.36207 18.3883 10.6773 18.6499C11.9925 18.9115 13.3557 18.7773 14.5946 18.2641C15.8335 17.751 16.8923 16.8819 17.6373 15.767C18.3823 14.652 18.78 13.3412 18.78 12.0002C18.7782 10.2026 18.0633 8.47909 16.7922 7.20798C15.5211 5.93687 13.7976 5.22198 12 5.22021ZM12 15.8869C11.2233 15.8869 10.4641 15.6561 9.81871 15.2239C9.17337 14.7916 8.67098 14.1774 8.37529 13.4592C8.0796 12.741 8.00394 11.9511 8.15791 11.1898C8.31189 10.4285 8.68856 9.73008 9.24012 9.18321C9.79168 8.63634 10.4933 8.26565 11.2559 8.11818C12.0184 7.97071 12.8077 8.05312 13.5233 8.35493C14.239 8.65674 14.8489 9.16436 15.2756 9.81337C15.7023 10.4624 15.9266 11.2235 15.92 12.0002C15.92 13.0399 15.507 14.0369 14.7718 14.7721C14.0367 15.5072 13.0396 15.9202 12 15.9202V15.8869Z" fill="#FFD467"/>
<path d="M12 1.3335C9.89033 1.3335 7.82804 1.95909 6.07392 3.13115C4.31979 4.30322 2.95262 5.96913 2.14528 7.91821C1.33795 9.86728 1.12671 12.012 1.53829 14.0811C1.94987 16.1503 2.96577 18.0509 4.45753 19.5426C5.94929 21.0344 7.84991 22.0503 9.91904 22.4619C11.9882 22.8734 14.1329 22.6622 16.082 21.8549C18.031 21.0475 19.6969 19.6804 20.869 17.9262C22.0411 16.1721 22.6667 14.1098 22.6667 12.0002C22.6667 9.17119 21.5429 6.45808 19.5425 4.45769C17.5421 2.4573 14.829 1.3335 12 1.3335ZM12 19.8868C10.4402 19.8868 8.91536 19.4243 7.6184 18.5577C6.32145 17.6911 5.31059 16.4594 4.71367 15.0183C4.11675 13.5772 3.96056 11.9914 4.26487 10.4615C4.56918 8.93169 5.32031 7.52642 6.42328 6.42345C7.52625 5.32048 8.93152 4.56934 10.4614 4.26504C11.9913 3.96073 13.577 4.11691 15.0181 4.71383C16.4592 5.31076 17.6909 6.32161 18.5575 7.61857C19.4241 8.91552 19.8867 10.4403 19.8867 12.0002C19.8831 14.0908 19.0511 16.0947 17.5728 17.573C16.0945 19.0513 14.0906 19.8833 12 19.8868Z" fill="#FFD467"/>
</svg>
