<svg width="24" height="24" viewBox="0 0 24 24" fill="none" xmlns="http://www.w3.org/2000/svg">
<path d="M21.75 5.25H20.25V20.8447L22.125 22.7197V5.625C22.125 5.52554 22.0855 5.43016 22.0152 5.35984C21.9448 5.28951 21.8495 5.25 21.75 5.25Z" fill="white"/>
<path d="M18.1553 23.25H21.5947L19.875 21.5303L18.1553 23.25Z" fill="white"/>
<path d="M19.5 5.25H17.625V22.7197L19.5 20.8447V5.25Z" fill="white"/>
<path d="M14.25 4.50049C14.25 3.50593 13.8549 2.5521 13.1517 1.84884C12.4484 1.14558 11.4946 0.750488 10.5 0.750488C9.50544 0.750488 8.55161 1.14558 7.84835 1.84884C7.14509 2.5521 6.75 3.50593 6.75 4.50049V5.25049H3C2.90063 5.25078 2.80542 5.29038 2.73515 5.36064C2.66489 5.4309 2.62529 5.52612 2.625 5.62549V22.8755C2.62529 22.9749 2.66489 23.0701 2.73515 23.1403C2.80542 23.2106 2.90063 23.2502 3 23.2505H16.875V5.25049H14.25V4.50049ZM7.5 4.50049C7.5 3.70484 7.81607 2.94178 8.37868 2.37917C8.94129 1.81656 9.70435 1.50049 10.5 1.50049C11.2956 1.50049 12.0587 1.81656 12.6213 2.37917C13.1839 2.94178 13.5 3.70484 13.5 4.50049V5.25049H7.5V4.50049ZM12 16.6416V19.8755C12 19.9419 11.9824 20.007 11.949 20.0644C11.9155 20.1217 11.8675 20.1691 11.8097 20.2018C11.752 20.2345 11.6866 20.2513 11.6202 20.2504C11.5539 20.2496 11.4889 20.2312 11.432 20.197L9.75 19.1877L8.06798 20.197C8.01107 20.2312 7.94613 20.2496 7.87977 20.2504C7.81341 20.2513 7.74802 20.2345 7.69026 20.2018C7.63251 20.1691 7.58447 20.1217 7.55104 20.0644C7.51762 20.007 7.5 19.9419 7.5 19.8755V16.6416C6.64211 16.1463 5.97163 15.3818 5.59254 14.4666C5.21345 13.5514 5.14695 12.5367 5.40333 11.5798C5.65972 10.623 6.22467 9.77748 7.01057 9.17443C7.79647 8.57139 8.7594 8.24452 9.75 8.24452C10.7406 8.24452 11.7035 8.57139 12.4894 9.17443C13.2753 9.77748 13.8403 10.623 14.0967 11.5798C14.3531 12.5367 14.2865 13.5514 13.9075 14.4666C13.5284 15.3818 12.8579 16.1463 12 16.6416Z" fill="white"/>
<path d="M10.875 4.50032V4.87532H11.625V4.50032C11.6257 3.80669 11.8669 3.13477 12.3075 2.59906C12.1262 2.42308 11.9188 2.27633 11.6925 2.16406C11.1626 2.82741 10.8743 3.65133 10.875 4.50032Z" fill="white"/>
<path d="M14.6248 1.50002C15.4202 1.50107 16.1826 1.81748 16.745 2.37986C17.3074 2.94224 17.6238 3.70469 17.6248 4.50002V4.87502H18.3748V4.50002C18.3732 3.50596 17.9776 2.55308 17.2747 1.85018C16.5718 1.14727 15.6189 0.751655 14.6248 0.750018C14.0324 0.748144 13.4482 0.889672 12.9223 1.16252C13.1432 1.32356 13.3479 1.50567 13.5336 1.70627C13.8813 1.57029 14.2514 1.50034 14.6248 1.50002Z" fill="white"/>
<path d="M8.25 11.625C8.45711 11.625 8.625 11.4571 8.625 11.25C8.625 11.0429 8.45711 10.875 8.25 10.875C8.04289 10.875 7.875 11.0429 7.875 11.25C7.875 11.4571 8.04289 11.625 8.25 11.625Z" fill="white"/>
<path d="M11.25 14.625C11.4571 14.625 11.625 14.4571 11.625 14.25C11.625 14.0429 11.4571 13.875 11.25 13.875C11.0429 13.875 10.875 14.0429 10.875 14.25C10.875 14.4571 11.0429 14.625 11.25 14.625Z" fill="white"/>
<path d="M9.74983 9C9.00871 9.00039 8.28434 9.22049 7.66829 9.63248C7.05224 10.0445 6.57215 10.6299 6.28872 11.3146C6.00529 11.9994 5.93123 12.7528 6.07592 13.4797C6.2206 14.2066 6.57752 14.8742 7.10157 15.3983C7.62562 15.9223 8.29327 16.2792 9.02013 16.4239C9.74698 16.5686 10.5004 16.4945 11.1852 16.2111C11.87 15.9277 12.4554 15.4476 12.8673 14.8315C13.2793 14.2155 13.4994 13.4911 13.4998 12.75C13.4987 11.7558 13.1032 10.8026 12.4002 10.0996C11.6972 9.39658 10.744 9.00113 9.74983 9ZM7.12483 11.25C7.12483 11.0275 7.19081 10.81 7.31442 10.625C7.43804 10.44 7.61374 10.2958 7.81931 10.2106C8.02487 10.1255 8.25107 10.1032 8.4693 10.1466C8.68753 10.19 8.88799 10.2972 9.04532 10.4545C9.20265 10.6118 9.3098 10.8123 9.35321 11.0305C9.39662 11.2488 9.37434 11.475 9.28919 11.6805C9.20404 11.8861 9.05985 12.0618 8.87484 12.1854C8.68984 12.309 8.47233 12.375 8.24983 12.375C7.95156 12.3747 7.6656 12.256 7.45469 12.0451C7.24378 11.8342 7.12515 11.5483 7.12483 11.25ZM8.13995 14.8901C8.06923 14.9584 7.9745 14.9962 7.87618 14.9954C7.77785 14.9945 7.6838 14.9551 7.61427 14.8856C7.54474 14.816 7.5053 14.722 7.50445 14.6237C7.50359 14.5253 7.54139 14.4306 7.6097 14.3599L11.3597 10.6099C11.4304 10.5416 11.5252 10.5038 11.6235 10.5046C11.7218 10.5055 11.8159 10.5449 11.8854 10.6144C11.9549 10.684 11.9943 10.778 11.9952 10.8764C11.9961 10.9747 11.9583 11.0694 11.89 11.1401L8.13995 14.8901ZM11.2498 15.375C11.0273 15.375 10.8098 15.309 10.6248 15.1854C10.4398 15.0618 10.2956 14.8861 10.2105 14.6805C10.1253 14.475 10.103 14.2488 10.1464 14.0305C10.1899 13.8123 10.297 13.6118 10.4543 13.4545C10.6117 13.2972 10.8121 13.19 11.0303 13.1466C11.2486 13.1032 11.4748 13.1255 11.6803 13.2106C11.8859 13.2958 12.0616 13.44 12.1852 13.625C12.3088 13.81 12.3748 14.0275 12.3748 14.25C12.3745 14.5483 12.2559 14.8342 12.045 15.0451C11.8341 15.2561 11.5481 15.3747 11.2498 15.375Z" fill="white"/>
<path d="M8.25 16.994V19.2125L9.55702 18.4285C9.61531 18.3935 9.68202 18.375 9.75 18.375C9.81798 18.375 9.88469 18.3935 9.94298 18.4285L11.25 19.2125V16.9937C10.7664 17.1567 10.2603 17.2432 9.75 17.25C9.23938 17.2471 8.73267 17.1607 8.25 16.994Z" fill="white"/>
</svg>
