<svg width="18" height="18" viewBox="0 0 18 18" fill="none" xmlns="http://www.w3.org/2000/svg">
<path d="M14.3438 13.2189V15.7502H13.2188V11.8408C13.8656 11.9814 14.3438 12.5439 14.3438 13.2189Z" fill="white"/>
<path d="M12.6562 11.8408V15.7502H11.5312V13.2189C11.5312 12.5439 12.0094 11.9814 12.6562 11.8408Z" fill="white"/>
<path d="M16.1719 4.78125H9.70312C9.47812 4.78125 9.28125 4.97812 9.28125 5.20312V15.75H10.9688V13.2188C10.9688 12.1219 11.8406 11.25 12.9375 11.25C14.0344 11.25 14.9062 12.1219 14.9062 13.2188V15.75H16.5938V5.20312C16.5938 4.97812 16.3969 4.78125 16.1719 4.78125ZM12.375 10.125C12.375 10.2937 12.2625 10.4062 12.0938 10.4062H10.9688C10.8 10.4062 10.6875 10.2937 10.6875 10.125V9C10.6875 8.83125 10.8 8.71875 10.9688 8.71875H12.0938C12.2625 8.71875 12.375 8.83125 12.375 9V10.125ZM12.375 7.59375C12.375 7.7625 12.2625 7.875 12.0938 7.875H10.9688C10.8 7.875 10.6875 7.7625 10.6875 7.59375V6.46875C10.6875 6.3 10.8 6.1875 10.9688 6.1875H12.0938C12.2625 6.1875 12.375 6.3 12.375 6.46875V7.59375ZM15.1875 10.125C15.1875 10.2937 15.075 10.4062 14.9062 10.4062H13.7812C13.6125 10.4062 13.5 10.2937 13.5 10.125V9C13.5 8.83125 13.6125 8.71875 13.7812 8.71875H14.9062C15.075 8.71875 15.1875 8.83125 15.1875 9V10.125ZM15.1875 7.59375C15.1875 7.7625 15.075 7.875 14.9062 7.875H13.7812C13.6125 7.875 13.5 7.7625 13.5 7.59375V6.46875C13.5 6.3 13.6125 6.1875 13.7812 6.1875H14.9062C15.075 6.1875 15.1875 6.3 15.1875 6.46875V7.59375Z" fill="white"/>
<path d="M17.1562 16.7344C17.1562 16.9594 16.9594 17.1562 16.7344 17.1562H1.26562C1.04062 17.1562 0.84375 16.9594 0.84375 16.7344C0.84375 16.5094 1.04062 16.3125 1.26562 16.3125H16.7344C16.9594 16.3125 17.1562 16.5094 17.1562 16.7344Z" fill="white"/>
<path d="M8.01562 0.84375H1.82812C1.60312 0.84375 1.40625 1.04062 1.40625 1.26562V15.75H8.71875V1.26562C8.71875 1.04062 8.24062 0.84375 8.01562 0.84375ZM4.5 12.9375C4.5 13.1062 4.3875 13.2188 4.21875 13.2188H3.09375C2.925 13.2188 2.8125 13.1062 2.8125 12.9375V11.8125C2.8125 11.6438 2.925 11.5312 3.09375 11.5312H4.21875C4.3875 11.5312 4.5 11.6438 4.5 11.8125V12.9375ZM4.5 10.6875C4.5 10.8562 4.3875 10.9688 4.21875 10.9688H3.09375C2.925 10.9688 2.8125 10.8562 2.8125 10.6875V9.5625C2.8125 9.39375 2.925 9.28125 3.09375 9.28125H4.21875C4.3875 9.28125 4.5 9.39375 4.5 9.5625V10.6875ZM4.5 8.4375C4.5 8.60625 4.3875 8.71875 4.21875 8.71875H3.09375C2.925 8.71875 2.8125 8.60625 2.8125 8.4375V7.3125C2.8125 7.14375 2.925 7.03125 3.09375 7.03125H4.21875C4.3875 7.03125 4.5 7.14375 4.5 7.3125V8.4375ZM4.5 6.1875C4.5 6.35625 4.3875 6.46875 4.21875 6.46875H3.09375C2.925 6.46875 2.8125 6.35625 2.8125 6.1875V5.0625C2.8125 4.89375 2.925 4.78125 3.09375 4.78125H4.21875C4.3875 4.78125 4.5 4.89375 4.5 5.0625V6.1875ZM4.5 3.9375C4.5 4.10625 4.3875 4.21875 4.21875 4.21875H3.09375C2.925 4.21875 2.8125 4.10625 2.8125 3.9375V2.8125C2.8125 2.64375 2.925 2.53125 3.09375 2.53125H4.21875C4.3875 2.53125 4.5 2.64375 4.5 2.8125V3.9375ZM7.3125 12.9375C7.3125 13.1062 7.2 13.2188 7.03125 13.2188H5.90625C5.7375 13.2188 5.625 13.1062 5.625 12.9375V11.8125C5.625 11.6438 5.7375 11.5312 5.90625 11.5312H7.03125C7.2 11.5312 7.3125 11.6438 7.3125 11.8125V12.9375ZM7.3125 10.6875C7.3125 10.8562 7.2 10.9688 7.03125 10.9688H5.90625C5.7375 10.9688 5.625 10.8562 5.625 10.6875V9.5625C5.625 9.39375 5.7375 9.28125 5.90625 9.28125H7.03125C7.2 9.28125 7.3125 9.39375 7.3125 9.5625V10.6875ZM7.3125 8.4375C7.3125 8.60625 7.2 8.71875 7.03125 8.71875H5.90625C5.7375 8.71875 5.625 8.60625 5.625 8.4375V7.3125C5.625 7.14375 5.7375 7.03125 5.90625 7.03125H7.03125C7.2 7.03125 7.3125 7.14375 7.3125 7.3125V8.4375ZM7.3125 6.1875C7.3125 6.35625 7.2 6.46875 7.03125 6.46875H5.90625C5.7375 6.46875 5.625 6.35625 5.625 6.1875V5.0625C5.625 4.89375 5.7375 4.78125 5.90625 4.78125H7.03125C7.2 4.78125 7.3125 4.89375 7.3125 5.0625V6.1875ZM7.3125 3.9375C7.3125 4.10625 7.2 4.21875 7.03125 4.21875H5.90625C5.7375 4.21875 5.625 4.10625 5.625 3.9375V2.8125C5.625 2.64375 5.7375 2.53125 5.90625 2.53125H7.03125C7.2 2.53125 7.3125 2.64375 7.3125 2.8125V3.9375Z" fill="white"/>
<path d="M3.375 3.09375H3.9375V3.65625H3.375V3.09375Z" fill="white"/>
<path d="M3.375 5.34375H3.9375V5.90625H3.375V5.34375Z" fill="white"/>
<path d="M3.375 7.59375H3.9375V8.15625H3.375V7.59375Z" fill="white"/>
<path d="M3.375 9.84375H3.9375V10.4062H3.375V9.84375Z" fill="white"/>
<path d="M3.375 12.0938H3.9375V12.6562H3.375V12.0938Z" fill="white"/>
<path d="M6.1875 3.09375H6.75V3.65625H6.1875V3.09375Z" fill="white"/>
<path d="M6.1875 5.34375H6.75V5.90625H6.1875V5.34375Z" fill="white"/>
<path d="M6.1875 7.59375H6.75V8.15625H6.1875V7.59375Z" fill="white"/>
<path d="M6.1875 9.84375H6.75V10.4062H6.1875V9.84375Z" fill="white"/>
<path d="M6.1875 12.0938H6.75V12.6562H6.1875V12.0938Z" fill="white"/>
<path d="M11.25 6.75H11.8125V7.3125H11.25V6.75Z" fill="white"/>
<path d="M11.25 9.28125H11.8125V9.84375H11.25V9.28125Z" fill="white"/>
<path d="M14.0625 6.75H14.625V7.3125H14.0625V6.75Z" fill="white"/>
<path d="M14.0625 9.28125H14.625V9.84375H14.0625V9.28125Z" fill="white"/>
</svg>
