<svg width="32" height="32" viewBox="0 0 32 32" fill="none" xmlns="http://www.w3.org/2000/svg">
<path d="M26.6667 2.6665H8C6.392 2.6665 4 3.73184 4 6.6665V25.3332C4 28.2678 6.392 29.3332 8 29.3332H28V26.6665H8.016C7.4 26.6505 6.66667 26.4078 6.66667 25.3332C6.66667 24.2585 7.4 24.0158 8.016 23.9998H28V3.99984C28 3.64622 27.8595 3.30708 27.6095 3.05703C27.3594 2.80698 27.0203 2.6665 26.6667 2.6665ZM12.6707 6.6665C13.2022 6.6665 13.7119 6.87764 14.0877 7.25346C14.4635 7.62928 14.6747 8.13901 14.6747 8.6705C14.6747 9.202 14.4635 9.71172 14.0877 10.0875C13.7119 10.4634 13.2022 10.6745 12.6707 10.6745C12.1392 10.6745 11.6294 10.4634 11.2536 10.0875C10.8778 9.71172 10.6667 9.202 10.6667 8.6705C10.6667 8.13901 10.8778 7.62928 11.2536 7.25346C11.6294 6.87764 12.1392 6.6665 12.6707 6.6665ZM16 17.3332H9.33333L13.3333 13.3332L15.3333 15.1985L19.3333 10.6665L24 17.3332H16Z" fill="white"/>
</svg>
