<svg width="57" height="57" viewBox="0 0 57 57" fill="none" xmlns="http://www.w3.org/2000/svg">
<circle cx="28.5" cy="28.5" r="28.5" fill="#6473FB"/>
<path d="M36.125 34.6251V38.0001H34.625V32.7876C35.4875 32.9751 36.125 33.7251 36.125 34.6251Z" fill="white"/>
<path d="M33.875 32.7876V38.0001H32.375V34.6251C32.375 33.7251 33.0125 32.9751 33.875 32.7876Z" fill="white"/>
<path d="M38.5625 23.375H29.9375C29.6375 23.375 29.375 23.6375 29.375 23.9375V38H31.625V34.625C31.625 33.1625 32.7875 32 34.25 32C35.7125 32 36.875 33.1625 36.875 34.625V38H39.125V23.9375C39.125 23.6375 38.8625 23.375 38.5625 23.375ZM33.5 30.5C33.5 30.725 33.35 30.875 33.125 30.875H31.625C31.4 30.875 31.25 30.725 31.25 30.5V29C31.25 28.775 31.4 28.625 31.625 28.625H33.125C33.35 28.625 33.5 28.775 33.5 29V30.5ZM33.5 27.125C33.5 27.35 33.35 27.5 33.125 27.5H31.625C31.4 27.5 31.25 27.35 31.25 27.125V25.625C31.25 25.4 31.4 25.25 31.625 25.25H33.125C33.35 25.25 33.5 25.4 33.5 25.625V27.125ZM37.25 30.5C37.25 30.725 37.1 30.875 36.875 30.875H35.375C35.15 30.875 35 30.725 35 30.5V29C35 28.775 35.15 28.625 35.375 28.625H36.875C37.1 28.625 37.25 28.775 37.25 29V30.5ZM37.25 27.125C37.25 27.35 37.1 27.5 36.875 27.5H35.375C35.15 27.5 35 27.35 35 27.125V25.625C35 25.4 35.15 25.25 35.375 25.25H36.875C37.1 25.25 37.25 25.4 37.25 25.625V27.125Z" fill="white"/>
<path d="M39.875 39.3125C39.875 39.6125 39.6125 39.875 39.3125 39.875H18.6875C18.3875 39.875 18.125 39.6125 18.125 39.3125C18.125 39.0125 18.3875 38.75 18.6875 38.75H39.3125C39.6125 38.75 39.875 39.0125 39.875 39.3125Z" fill="white"/>
<path d="M27.6875 18.125H19.4375C19.1375 18.125 18.875 18.3875 18.875 18.6875V38H28.625V18.6875C28.625 18.3875 27.9875 18.125 27.6875 18.125ZM23 34.25C23 34.475 22.85 34.625 22.625 34.625H21.125C20.9 34.625 20.75 34.475 20.75 34.25V32.75C20.75 32.525 20.9 32.375 21.125 32.375H22.625C22.85 32.375 23 32.525 23 32.75V34.25ZM23 31.25C23 31.475 22.85 31.625 22.625 31.625H21.125C20.9 31.625 20.75 31.475 20.75 31.25V29.75C20.75 29.525 20.9 29.375 21.125 29.375H22.625C22.85 29.375 23 29.525 23 29.75V31.25ZM23 28.25C23 28.475 22.85 28.625 22.625 28.625H21.125C20.9 28.625 20.75 28.475 20.75 28.25V26.75C20.75 26.525 20.9 26.375 21.125 26.375H22.625C22.85 26.375 23 26.525 23 26.75V28.25ZM23 25.25C23 25.475 22.85 25.625 22.625 25.625H21.125C20.9 25.625 20.75 25.475 20.75 25.25V23.75C20.75 23.525 20.9 23.375 21.125 23.375H22.625C22.85 23.375 23 23.525 23 23.75V25.25ZM23 22.25C23 22.475 22.85 22.625 22.625 22.625H21.125C20.9 22.625 20.75 22.475 20.75 22.25V20.75C20.75 20.525 20.9 20.375 21.125 20.375H22.625C22.85 20.375 23 20.525 23 20.75V22.25ZM26.75 34.25C26.75 34.475 26.6 34.625 26.375 34.625H24.875C24.65 34.625 24.5 34.475 24.5 34.25V32.75C24.5 32.525 24.65 32.375 24.875 32.375H26.375C26.6 32.375 26.75 32.525 26.75 32.75V34.25ZM26.75 31.25C26.75 31.475 26.6 31.625 26.375 31.625H24.875C24.65 31.625 24.5 31.475 24.5 31.25V29.75C24.5 29.525 24.65 29.375 24.875 29.375H26.375C26.6 29.375 26.75 29.525 26.75 29.75V31.25ZM26.75 28.25C26.75 28.475 26.6 28.625 26.375 28.625H24.875C24.65 28.625 24.5 28.475 24.5 28.25V26.75C24.5 26.525 24.65 26.375 24.875 26.375H26.375C26.6 26.375 26.75 26.525 26.75 26.75V28.25ZM26.75 25.25C26.75 25.475 26.6 25.625 26.375 25.625H24.875C24.65 25.625 24.5 25.475 24.5 25.25V23.75C24.5 23.525 24.65 23.375 24.875 23.375H26.375C26.6 23.375 26.75 23.525 26.75 23.75V25.25ZM26.75 22.25C26.75 22.475 26.6 22.625 26.375 22.625H24.875C24.65 22.625 24.5 22.475 24.5 22.25V20.75C24.5 20.525 24.65 20.375 24.875 20.375H26.375C26.6 20.375 26.75 20.525 26.75 20.75V22.25Z" fill="white"/>
<path d="M21.5 21.125H22.25V21.875H21.5V21.125Z" fill="white"/>
<path d="M21.5 24.125H22.25V24.875H21.5V24.125Z" fill="white"/>
<path d="M21.5 27.125H22.25V27.875H21.5V27.125Z" fill="white"/>
<path d="M21.5 30.125H22.25V30.875H21.5V30.125Z" fill="white"/>
<path d="M21.5 33.125H22.25V33.875H21.5V33.125Z" fill="white"/>
<path d="M25.25 21.125H26V21.875H25.25V21.125Z" fill="white"/>
<path d="M25.25 24.125H26V24.875H25.25V24.125Z" fill="white"/>
<path d="M25.25 27.125H26V27.875H25.25V27.125Z" fill="white"/>
<path d="M25.25 30.125H26V30.875H25.25V30.125Z" fill="white"/>
<path d="M25.25 33.125H26V33.875H25.25V33.125Z" fill="white"/>
<path d="M32 26H32.75V26.75H32V26Z" fill="white"/>
<path d="M32 29.375H32.75V30.125H32V29.375Z" fill="white"/>
<path d="M35.75 26H36.5V26.75H35.75V26Z" fill="white"/>
<path d="M35.75 29.375H36.5V30.125H35.75V29.375Z" fill="white"/>
</svg>
