<svg width="57" height="57" viewBox="0 0 57 57" fill="none" xmlns="http://www.w3.org/2000/svg">
<circle cx="28.5" cy="28.5" r="28.5" fill="#6473FB"/>
<path d="M38.4998 35H19.4998C19.102 35 18.7205 35.158 18.4392 35.4393C18.1579 35.7206 17.9998 36.1022 17.9998 36.5C17.9998 36.8978 18.1579 37.2794 18.4392 37.5607C18.7205 37.842 19.102 38 19.4998 38H38.4998C38.8977 38 39.2792 37.842 39.5605 37.5607C39.8418 37.2794 39.9998 36.8978 39.9998 36.5C39.9998 36.1022 39.8418 35.7206 39.5605 35.4393C39.2792 35.158 38.8977 35 38.4998 35Z" fill="white"/>
<path d="M28.9998 23.5C26.4803 23.5 24.0639 24.5009 22.2823 26.2825C20.5007 28.0641 19.4998 30.4804 19.4998 33V34C19.4998 34.1326 19.5525 34.2598 19.6463 34.3535C19.7401 34.4473 19.8672 34.5 19.9998 34.5H37.9998C38.1325 34.5 38.2596 34.4473 38.3534 34.3535C38.4472 34.2598 38.4998 34.1326 38.4998 34V33C38.4998 30.4804 37.499 28.0641 35.7174 26.2825C33.9358 24.5009 31.5194 23.5 28.9998 23.5Z" fill="white"/>
<path d="M30.5 20H27.5C27.1022 20 26.7206 20.158 26.4393 20.4393C26.158 20.7206 26 21.1022 26 21.5C26 21.8978 26.158 22.2794 26.4393 22.5607C26.7206 22.842 27.1022 23 27.5 23V24C27.5 24.1326 27.5527 24.2598 27.6464 24.3536C27.7402 24.4473 27.8674 24.5 28 24.5H30C30.1326 24.5 30.2598 24.4473 30.3536 24.3536C30.4473 24.2598 30.5 24.1326 30.5 24V23C30.8978 23 31.2794 22.842 31.5607 22.5607C31.842 22.2794 32 21.8978 32 21.5C32 21.1022 31.842 20.7206 31.5607 20.4393C31.2794 20.158 30.8978 20 30.5 20Z" fill="white"/>
</svg>
