<svg width="57" height="57" viewBox="0 0 57 57" fill="none" xmlns="http://www.w3.org/2000/svg">
<circle cx="28.5" cy="28.5" r="28.5" fill="#6473FB"/>
<path d="M38.75 22.25H37.25V37.8447L39.125 39.7197V22.625C39.125 22.5255 39.0855 22.4302 39.0152 22.3598C38.9448 22.2895 38.8495 22.25 38.75 22.25Z" fill="white"/>
<path d="M35.1553 40.25H38.5947L36.875 38.5303L35.1553 40.25Z" fill="white"/>
<path d="M36.5 22.25H34.625V39.7197L36.5 37.8447V22.25Z" fill="white"/>
<path d="M31.25 21.5005C31.25 20.5059 30.8549 19.5521 30.1517 18.8488C29.4484 18.1456 28.4946 17.7505 27.5 17.7505C26.5054 17.7505 25.5516 18.1456 24.8483 18.8488C24.1451 19.5521 23.75 20.5059 23.75 21.5005V22.2505H20C19.9006 22.2508 19.8054 22.2904 19.7352 22.3606C19.6649 22.4309 19.6253 22.5261 19.625 22.6255V39.8755C19.6253 39.9749 19.6649 40.0701 19.7352 40.1403C19.8054 40.2106 19.9006 40.2502 20 40.2505H33.875V22.2505H31.25V21.5005ZM24.5 21.5005C24.5 20.7048 24.8161 19.9418 25.3787 19.3792C25.9413 18.8166 26.7044 18.5005 27.5 18.5005C28.2956 18.5005 29.0587 18.8166 29.6213 19.3792C30.1839 19.9418 30.5 20.7048 30.5 21.5005V22.2505H24.5V21.5005ZM29 33.6416V36.8755C29 36.9419 28.9824 37.007 28.949 37.0644C28.9155 37.1217 28.8675 37.1691 28.8097 37.2018C28.752 37.2345 28.6866 37.2513 28.6202 37.2504C28.5539 37.2496 28.4889 37.2312 28.432 37.197L26.75 36.1877L25.068 37.197C25.0111 37.2312 24.9461 37.2496 24.8798 37.2504C24.8134 37.2513 24.748 37.2345 24.6903 37.2018C24.6325 37.1691 24.5845 37.1217 24.551 37.0644C24.5176 37.007 24.5 36.9419 24.5 36.8755V33.6416C23.6421 33.1463 22.9716 32.3818 22.5925 31.4666C22.2135 30.5514 22.1469 29.5367 22.4033 28.5798C22.6597 27.623 23.2247 26.7775 24.0106 26.1744C24.7965 25.5714 25.7594 25.2445 26.75 25.2445C27.7406 25.2445 28.7035 25.5714 29.4894 26.1744C30.2753 26.7775 30.8403 27.623 31.0967 28.5798C31.3531 29.5367 31.2865 30.5514 30.9075 31.4666C30.5284 32.3818 29.8579 33.1463 29 33.6416Z" fill="white"/>
<path d="M27.875 21.5003V21.8753H28.625V21.5003C28.6257 20.8067 28.8669 20.1348 29.3075 19.5991C29.1262 19.4231 28.9188 19.2763 28.6925 19.1641C28.1626 19.8274 27.8743 20.6513 27.875 21.5003Z" fill="white"/>
<path d="M31.6248 18.5C32.4202 18.5011 33.1826 18.8175 33.745 19.3799C34.3074 19.9422 34.6238 20.7047 34.6248 21.5V21.875H35.3748V21.5C35.3732 20.506 34.9776 19.5531 34.2747 18.8502C33.5718 18.1473 32.6189 17.7517 31.6248 17.75C31.0324 17.7481 30.4482 17.8897 29.9223 18.1625C30.1432 18.3236 30.3479 18.5057 30.5336 18.7063C30.8813 18.5703 31.2514 18.5003 31.6248 18.5Z" fill="white"/>
<path d="M25.25 28.625C25.4571 28.625 25.625 28.4571 25.625 28.25C25.625 28.0429 25.4571 27.875 25.25 27.875C25.0429 27.875 24.875 28.0429 24.875 28.25C24.875 28.4571 25.0429 28.625 25.25 28.625Z" fill="white"/>
<path d="M28.25 31.625C28.4571 31.625 28.625 31.4571 28.625 31.25C28.625 31.0429 28.4571 30.875 28.25 30.875C28.0429 30.875 27.875 31.0429 27.875 31.25C27.875 31.4571 28.0429 31.625 28.25 31.625Z" fill="white"/>
<path d="M26.7498 26C26.0087 26.0004 25.2843 26.2205 24.6683 26.6325C24.0522 27.0445 23.5722 27.6299 23.2887 28.3146C23.0053 28.9994 22.9312 29.7528 23.0759 30.4797C23.2206 31.2066 23.5775 31.8742 24.1016 32.3983C24.6256 32.9223 25.2933 33.2792 26.0201 33.4239C26.747 33.5686 27.5004 33.4945 28.1852 33.2111C28.87 32.9277 29.4554 32.4476 29.8673 31.8315C30.2793 31.2155 30.4994 30.4911 30.4998 29.75C30.4987 28.7558 30.1032 27.8026 29.4002 27.0996C28.6972 26.3966 27.744 26.0011 26.7498 26ZM24.1248 28.25C24.1248 28.0275 24.1908 27.81 24.3144 27.625C24.438 27.44 24.6137 27.2958 24.8193 27.2106C25.0249 27.1255 25.2511 27.1032 25.4693 27.1466C25.6875 27.19 25.888 27.2972 26.0453 27.4545C26.2027 27.6118 26.3098 27.8123 26.3532 28.0305C26.3966 28.2488 26.3743 28.475 26.2892 28.6805C26.204 28.8861 26.0598 29.0618 25.8748 29.1854C25.6898 29.309 25.4723 29.375 25.2498 29.375C24.9516 29.3747 24.6656 29.256 24.4547 29.0451C24.2438 28.8342 24.1252 28.5483 24.1248 28.25ZM25.14 31.8901C25.0692 31.9584 24.9745 31.9962 24.8762 31.9954C24.7779 31.9945 24.6838 31.9551 24.6143 31.8856C24.5447 31.816 24.5053 31.722 24.5044 31.6237C24.5036 31.5253 24.5414 31.4306 24.6097 31.3599L28.3597 27.6099C28.4304 27.5416 28.5252 27.5038 28.6235 27.5046C28.7218 27.5055 28.8159 27.5449 28.8854 27.6144C28.9549 27.684 28.9943 27.778 28.9952 27.8764C28.9961 27.9747 28.9583 28.0694 28.89 28.1401L25.14 31.8901ZM28.2498 32.375C28.0273 32.375 27.8098 32.309 27.6248 32.1854C27.4398 32.0618 27.2956 31.8861 27.2105 31.6805C27.1253 31.475 27.103 31.2488 27.1464 31.0305C27.1899 30.8123 27.297 30.6118 27.4543 30.4545C27.6117 30.2972 27.8121 30.19 28.0303 30.1466C28.2486 30.1032 28.4748 30.1255 28.6803 30.2106C28.8859 30.2958 29.0616 30.44 29.1852 30.625C29.3088 30.81 29.3748 31.0275 29.3748 31.25C29.3745 31.5483 29.2559 31.8342 29.045 32.0451C28.8341 32.2561 28.5481 32.3747 28.2498 32.375Z" fill="white"/>
<path d="M25.25 33.994V36.2125L26.557 35.4285C26.6153 35.3935 26.682 35.375 26.75 35.375C26.818 35.375 26.8847 35.3935 26.943 35.4285L28.25 36.2125V33.9937C27.7664 34.1567 27.2603 34.2432 26.75 34.25C26.2394 34.2471 25.7327 34.1607 25.25 33.994Z" fill="white"/>
</svg>
