<svg width="57" height="57" viewBox="0 0 57 57" fill="none" xmlns="http://www.w3.org/2000/svg">
<circle cx="28.5" cy="28.5" r="28.5" fill="#6473FB"/>
<path d="M21.2188 27.6172H22.625V29.0234H21.2188V27.6172Z" fill="white"/>
<path d="M35.375 27.6172H36.7812V29.0234H35.375V27.6172Z" fill="white"/>
<path d="M28.2969 36.4766H29.7031V34.6484H31.5312V33.2422H29.7031V31.4141H28.2969V33.2422H26.4688V34.6484H28.2969V36.4766Z" fill="white"/>
<path d="M38.1875 27.6172V30.4297H33.9688V27.6172H24.0312V30.4297H19.8125V27.6172C19.0146 27.6172 17.7887 27.6172 17 27.6172V40.6953H41V27.6172C40.6495 27.6172 38.1875 27.6172 38.1875 27.6172ZM25.0625 31.8359H26.8906V30.0078H31.1094V31.8359H32.9375V36.0547H31.1094V37.8828H26.8906V36.0547H25.0625V31.8359Z" fill="white"/>
<path d="M35.4977 20.5859L33.2107 17.3047H24.7893L22.5023 20.5859H17V26.2109H41V20.5859H35.4977ZM25.5232 18.7109H32.4768L33.7835 20.5859H24.2165L25.5232 18.7109Z" fill="white"/>
</svg>
