<svg width="57" height="57" viewBox="0 0 57 57" fill="none" xmlns="http://www.w3.org/2000/svg">
<circle cx="28.5" cy="28.5" r="28.5" fill="#6473FB"/>
<path d="M17 31.625V40.2969C17 40.6852 17.3148 41 17.7031 41H40.2969C40.6852 41 41 40.6852 41 40.2969V31.625H17ZM38.1406 38.1875C38.1406 38.5758 37.8258 38.8906 37.4375 38.8906H20.5625C20.1742 38.8906 19.8594 38.5758 19.8594 38.1875V34.4375C19.8594 34.0492 20.1742 33.7344 20.5625 33.7344H37.4375C37.8258 33.7344 38.1406 34.0492 38.1406 34.4375V38.1875Z" fill="white"/>
<path d="M21.2656 35.1406H36.7344V37.4844H21.2656V35.1406Z" fill="white"/>
<path d="M33.2188 17.7031C33.2188 17.3148 32.9039 17 32.5156 17H25.4844C25.0961 17 24.7812 17.3148 24.7812 17.7031V26.7031H33.2188V17.7031ZM31.8174 20.1523L28.5028 23.4669C28.371 23.5988 28.1922 23.6729 28.0057 23.6729C27.8192 23.6729 27.6403 23.5988 27.5085 23.4669L26.1827 22.1411C25.9081 21.8665 25.9081 21.4213 26.1827 21.1467C26.4573 20.8722 26.9025 20.8722 27.1771 21.1467L28.0057 21.9754L30.8231 19.158C31.0977 18.8834 31.5429 18.8834 31.8175 19.158C32.092 19.4326 32.092 19.8778 31.8174 20.1523Z" fill="white"/>
<path d="M39.0885 25.0745C38.9927 24.7874 38.7241 24.5938 38.4214 24.5938H34.6245V26.7031H35.0933C35.4816 26.7031 35.7964 27.0179 35.7964 27.4062C35.7964 27.7946 35.4816 28.1094 35.0933 28.1094H22.9058C22.5175 28.1094 22.2027 27.7946 22.2027 27.4062C22.2027 27.0179 22.5175 26.7031 22.9058 26.7031H23.3745V24.5938H19.5777C19.275 24.5938 19.0064 24.7874 18.9106 25.0745L17.1959 30.2188H40.8032L39.0885 25.0745Z" fill="white"/>
</svg>
