<svg width="57" height="57" viewBox="0 0 57 57" fill="none" xmlns="http://www.w3.org/2000/svg">
<circle cx="28.5" cy="28.5" r="28.5" fill="#6473FB"/>
<g clip-path="url(#clip0)">
<path d="M40.25 32.7969H37.4591L35.5415 25.1263C35.4633 24.8134 35.182 24.5938 34.8594 24.5938H34.625V23.0637C35.2452 22.7919 35.6797 22.1724 35.6797 21.4531C35.6797 20.4839 34.8911 19.6953 33.9219 19.6953C32.9526 19.6953 32.1641 20.4839 32.1641 21.4531C32.1641 22.1725 32.5986 22.7919 33.2188 23.0637V24.5938H32.9844C32.6617 24.5938 32.3805 24.8134 32.3022 25.1263L30.3846 32.7969H26.8906V41H29.7031V36.5469C29.7031 36.1586 30.0179 35.8438 30.4062 35.8438H40.9531V33.5C40.9531 33.1117 40.6383 32.7969 40.25 32.7969ZM32.8917 28.5667L34.4413 29.2309L32.2967 30.9465L32.8917 28.5667ZM33.5333 26H34.3104L34.7709 27.8422L33.2371 27.1849L33.5333 26ZM35.3805 30.2804L36.0096 32.7969H32.2349L35.3805 30.2804Z" fill="white"/>
<path d="M36.7344 37.2495H38.1406V40.9995H36.7344V37.2495Z" fill="white"/>
<path d="M39.5469 37.2495H40.9531V40.9995H39.5469V37.2495Z" fill="white"/>
<path d="M33.9219 37.2495H35.3281V40.9995H33.9219V37.2495Z" fill="white"/>
<path d="M31.1094 37.2495H32.5156V40.9995H31.1094V37.2495Z" fill="white"/>
<path d="M20.5625 37.2495H21.9688V40.9995H20.5625V37.2495Z" fill="white"/>
<path d="M24.7812 27.4062H17.75C17.3617 27.4062 17.0469 27.7211 17.0469 28.1094V40.2969C17.0469 40.6852 17.3617 41 17.75 41H19.1562V36.5469C19.1562 36.1586 19.4711 35.8438 19.8594 35.8438H22.6719C23.0602 35.8438 23.375 36.1586 23.375 36.5469V41H25.4844V28.1094C25.4844 27.7211 25.1696 27.4062 24.7812 27.4062ZM22.6719 34.4375H19.8594C19.4711 34.4375 19.1562 34.1227 19.1562 33.7344C19.1562 33.3461 19.4711 33.0313 19.8594 33.0313H22.6719C23.0602 33.0313 23.375 33.3461 23.375 33.7344C23.375 34.1227 23.0602 34.4375 22.6719 34.4375ZM22.6719 31.625H19.8594C19.4711 31.625 19.1562 31.3102 19.1562 30.9219C19.1562 30.5336 19.4711 30.2188 19.8594 30.2188H22.6719C23.0602 30.2188 23.375 30.5336 23.375 30.9219C23.375 31.3102 23.0602 31.625 22.6719 31.625Z" fill="white"/>
<path d="M36.865 23.9583C36.9654 24.0081 37.0718 24.0316 37.1767 24.0316C37.4355 24.0316 37.6845 23.8881 37.8073 23.6405C38.4859 22.271 38.4859 20.6357 37.8073 19.2661C37.6348 18.9181 37.2129 18.7758 36.8651 18.9483C36.5171 19.1207 36.3748 19.5425 36.5472 19.8905C37.0321 20.8691 37.0321 22.0375 36.5472 23.0161C36.3748 23.3641 36.5171 23.7859 36.865 23.9583Z" fill="white"/>
<path d="M38.7972 25.7974C38.9137 25.8709 39.0435 25.906 39.1718 25.906C39.4051 25.906 39.6334 25.7899 39.7671 25.578C41.3486 23.072 41.3486 19.8335 39.7671 17.3275C39.5598 16.9991 39.1256 16.9008 38.7972 17.1081C38.4688 17.3154 38.3706 17.7496 38.5779 18.078C39.8717 20.128 39.8717 22.7774 38.5779 24.8275C38.3706 25.1559 38.4688 25.5902 38.7972 25.7974Z" fill="white"/>
<path d="M30.6664 24.0311C30.7713 24.0311 30.8777 24.0076 30.9781 23.9579C31.326 23.7855 31.4683 23.3636 31.2959 23.0156C30.811 22.0371 30.811 20.8686 31.2959 19.89C31.4683 19.5421 31.326 19.1202 30.978 18.9478C30.6302 18.7753 30.2083 18.9176 30.0358 19.2657C29.3572 20.6352 29.3572 22.2705 30.0358 23.6401C30.1586 23.8877 30.4076 24.0311 30.6664 24.0311Z" fill="white"/>
<path d="M28.6719 25.9059C28.8002 25.9059 28.93 25.8709 29.0465 25.7973C29.3749 25.5901 29.4731 25.1558 29.2659 24.8275C27.9721 22.7774 27.9721 20.1281 29.2659 18.078C29.4731 17.7496 29.3749 17.3154 29.0465 17.1081C28.7182 16.9009 28.2839 16.9991 28.0767 17.3275C26.4951 19.8335 26.4952 23.072 28.0767 25.578C28.2104 25.7899 28.4386 25.9059 28.6719 25.9059Z" fill="white"/>
</g>
<defs>
<clipPath id="clip0">
<rect width="24" height="24" fill="white" transform="translate(17 17)"/>
</clipPath>
</defs>
</svg>
