<svg width="28" height="28" viewBox="0 0 28 28" fill="none" xmlns="http://www.w3.org/2000/svg">
<circle cx="14" cy="14" r="14" fill="#6473FB"/>
<path d="M13.6165 18.2322C13.6593 18.2944 13.7165 18.3452 13.7834 18.3804C13.8502 18.4155 13.9246 18.4338 14.0001 18.4338C14.0755 18.4338 14.1499 18.4155 14.2167 18.3804C14.2836 18.3452 14.3408 18.2944 14.3836 18.2322L18.5837 12.1656C18.6323 12.0956 18.6608 12.0136 18.6661 11.9286C18.6714 11.8435 18.6533 11.7587 18.6137 11.6832C18.5742 11.6077 18.5147 11.5445 18.4418 11.5005C18.3689 11.4564 18.2853 11.4332 18.2001 11.4334H9.80005C9.71504 11.4337 9.63174 11.4572 9.5591 11.5014C9.48646 11.5455 9.42723 11.6086 9.38778 11.6839C9.34833 11.7592 9.33016 11.8439 9.33521 11.9287C9.34026 12.0136 9.36835 12.0955 9.41645 12.1656L13.6165 18.2322Z" fill="white"/>
</svg>
