<svg width="40" height="40" viewBox="0 0 40 40" fill="none" xmlns="http://www.w3.org/2000/svg">
<circle cx="20" cy="20" r="20" fill="#FFD467"/>
<path d="M19.4521 26.0462C19.5132 26.135 19.5951 26.2076 19.6905 26.2578C19.786 26.308 19.8922 26.3342 20.0001 26.3342C20.1079 26.3342 20.2141 26.308 20.3096 26.2578C20.4051 26.2076 20.4869 26.135 20.5481 26.0462L26.5481 17.3795C26.6175 17.2795 26.6582 17.1625 26.6658 17.041C26.6734 16.9195 26.6475 16.7982 26.5911 16.6904C26.5346 16.5826 26.4496 16.4923 26.3454 16.4294C26.2412 16.3665 26.1218 16.3333 26.0001 16.3335H14.0001C13.8786 16.334 13.7596 16.3676 13.6559 16.4307C13.5521 16.4937 13.4675 16.5839 13.4111 16.6915C13.3548 16.7991 13.3288 16.92 13.336 17.0412C13.3432 17.1624 13.3833 17.2794 13.4521 17.3795L19.4521 26.0462Z" fill="#1C1C1C"/>
</svg>
