<svg width="50" height="50" viewBox="0 0 50 50" fill="none" xmlns="http://www.w3.org/2000/svg">
<circle cx="25" cy="25" r="25" fill="#333333"/>
<path d="M18.3749 18.375H32.6249C32.8349 18.375 33.0362 18.4584 33.1847 18.6069C33.3332 18.7553 33.4166 18.9567 33.4166 19.1667V31.8333C33.4166 32.0433 33.3332 32.2447 33.1847 32.3931C33.0362 32.5416 32.8349 32.625 32.6249 32.625H18.3749C18.165 32.625 17.9636 32.5416 17.8151 32.3931C17.6667 32.2447 17.5833 32.0433 17.5833 31.8333V19.1667C17.5833 18.9567 17.6667 18.7553 17.8151 18.6069C17.9636 18.4584 18.165 18.375 18.3749 18.375ZM31.8333 21.7301L25.5569 27.3509L19.1666 21.7127V31.0417H31.8333V21.7301ZM19.5711 19.9583L25.5482 25.2324L31.439 19.9583H19.5711Z" fill="white"/>
</svg>
