<svg width="50" height="50" viewBox="0 0 50 50" fill="none" xmlns="http://www.w3.org/2000/svg">
<circle cx="25" cy="25" r="25" fill="#333333"/>
<path d="M20.4445 17.4619C19.6544 17.465 18.8974 17.7803 18.3387 18.339C17.7799 18.8978 17.4646 19.6547 17.4615 20.4449V30.5558C17.4646 31.346 17.7799 32.103 18.3387 32.6617C18.8974 33.2205 19.6544 33.5358 20.4445 33.5388H30.5555C31.3457 33.5358 32.1026 33.2205 32.6614 32.6617C33.2201 32.103 33.5354 31.346 33.5385 30.5558V20.4449C33.5354 19.6547 33.2201 18.8978 32.6614 18.339C32.1026 17.7803 31.3457 17.465 30.5555 17.4619H20.4445ZM20.4445 18.9235H30.5555C31.4032 18.9235 32.0769 19.5972 32.0769 20.4449V30.5558C32.0769 31.4035 31.4032 32.0773 30.5555 32.0773H20.4445C20.2444 32.0786 20.046 32.0401 19.8608 31.9641C19.6757 31.888 19.5074 31.776 19.3659 31.6345C19.2244 31.493 19.1123 31.3247 19.0363 31.1396C18.9603 30.9544 18.9218 30.756 18.9231 30.5558V20.4449C18.9231 19.5972 19.5969 18.9235 20.4445 18.9235ZM25.2947 22.7454C24.7575 22.7403 24.3008 22.7454 24.0443 22.8711C23.8726 22.9544 23.7418 23.1422 23.8214 23.151C23.9215 23.1656 24.1466 23.2138 24.2672 23.3768C24.4207 23.585 24.4155 24.0564 24.4155 24.0564C24.4155 24.0564 24.501 25.352 24.2065 25.515C24.0041 25.6261 23.7272 25.4003 23.1279 24.3699C22.8225 23.8393 22.5915 23.254 22.5915 23.254C22.5915 23.254 22.5477 23.1451 22.4688 23.0881C22.3716 23.0172 22.2371 22.9938 22.2371 22.9938L20.807 23.0026C20.807 23.0026 20.5929 23.0114 20.5162 23.1027C20.4445 23.1882 20.5103 23.3563 20.5103 23.3563C20.5103 23.3563 21.6291 25.9739 22.8963 27.293C24.0582 28.5038 25.3772 28.4235 25.3772 28.4235H25.9765C25.9765 28.4235 26.1562 28.4037 26.2476 28.3065C26.3338 28.2152 26.3309 28.0435 26.3309 28.0435C26.3309 28.0435 26.3192 27.2418 26.6904 27.122C27.0587 27.0072 27.5264 27.898 28.0263 28.2408C28.4063 28.5002 28.6942 28.4432 28.6942 28.4432L30.0308 28.4235C30.0308 28.4235 30.7272 28.3803 30.3962 27.8293C30.3706 27.787 30.2047 27.4245 29.406 26.682C28.5663 25.906 28.6781 26.0316 29.688 24.687C30.3019 23.8678 30.5474 23.368 30.47 23.151C30.3969 22.9485 29.9453 23.0026 29.9453 23.0026L28.4406 23.0114C28.4406 23.0114 28.3295 22.9968 28.247 23.0457C28.1902 23.0879 28.145 23.1437 28.1154 23.208C28.1154 23.208 27.8757 23.8415 27.5586 24.3816C26.8907 25.5172 26.6195 25.58 26.5114 25.5091C26.2571 25.3433 26.3199 24.8463 26.3199 24.4956C26.3199 23.3906 26.488 22.9339 25.9947 22.8148C25.8318 22.7746 25.7119 22.749 25.2954 22.7454H25.2947Z" fill="white"/>
</svg>
