<svg width="50" height="50" viewBox="0 0 50 50" fill="none" xmlns="http://www.w3.org/2000/svg">
<circle cx="25" cy="25" r="25" fill="#333333"/>
<path d="M25.5 23.1247C24.8702 23.1247 24.2661 23.3749 23.8207 23.8203C23.3753 24.2657 23.125 24.8698 23.125 25.4997C23.125 26.1296 23.3753 26.7337 23.8207 27.1791C24.2661 27.6245 24.8702 27.8747 25.5 27.8747C26.1299 27.8747 26.734 27.6245 27.1794 27.1791C27.6248 26.7337 27.875 26.1296 27.875 25.4997C27.875 24.8698 27.6248 24.2657 27.1794 23.8203C26.734 23.3749 26.1299 23.1247 25.5 23.1247ZM25.5 21.5413C26.5499 21.5413 27.5567 21.9584 28.299 22.7007C29.0413 23.443 29.4584 24.4499 29.4584 25.4997C29.4584 26.5495 29.0413 27.5563 28.299 28.2986C27.5567 29.041 26.5499 29.458 25.5 29.458C24.4502 29.458 23.4434 29.041 22.7011 28.2986C21.9587 27.5563 21.5417 26.5495 21.5417 25.4997C21.5417 24.4499 21.9587 23.443 22.7011 22.7007C23.4434 21.9584 24.4502 21.5413 25.5 21.5413ZM30.6459 21.3434C30.6459 21.6059 30.5416 21.8576 30.356 22.0432C30.1705 22.2287 29.9187 22.333 29.6563 22.333C29.3938 22.333 29.1421 22.2287 28.9565 22.0432C28.771 21.8576 28.6667 21.6059 28.6667 21.3434C28.6667 21.081 28.771 20.8293 28.9565 20.6437C29.1421 20.4581 29.3938 20.3538 29.6563 20.3538C29.9187 20.3538 30.1705 20.4581 30.356 20.6437C30.5416 20.8293 30.6459 21.081 30.6459 21.3434ZM25.5 19.1663C23.5415 19.1663 23.2216 19.1719 22.3104 19.2123C21.6897 19.2415 21.2733 19.3247 20.887 19.4751C20.5434 19.6081 20.2956 19.7672 20.032 20.0316C19.7842 20.271 19.5937 20.5633 19.4747 20.8866C19.3242 21.2745 19.2411 21.6902 19.2126 22.31C19.1715 23.184 19.1667 23.4896 19.1667 25.4997C19.1667 27.4583 19.1722 27.7781 19.2126 28.6893C19.2419 29.3092 19.325 29.7264 19.4747 30.1119C19.6092 30.4563 19.7676 30.7041 20.0304 30.9669C20.2972 31.2329 20.545 31.392 20.8854 31.5235C21.2765 31.6747 21.6929 31.7586 22.3104 31.7871C23.1844 31.8283 23.49 31.833 25.5 31.833C27.4586 31.833 27.7785 31.8275 28.6897 31.7871C29.3087 31.7578 29.726 31.6747 30.1123 31.5251C30.4551 31.3913 30.7045 31.2321 30.9673 30.9693C31.2341 30.7025 31.3932 30.4547 31.5246 30.1143C31.675 29.724 31.759 29.3068 31.7875 28.6893C31.8286 27.8153 31.8334 27.5097 31.8334 25.4997C31.8334 23.5411 31.8278 23.2213 31.7875 22.31C31.7582 21.691 31.675 21.273 31.5246 20.8866C31.4053 20.5636 31.2151 20.2715 30.9681 20.0316C30.7288 19.7837 30.4365 19.5932 30.1131 19.4743C29.7252 19.3239 29.3087 19.2408 28.6897 19.2123C27.8157 19.1711 27.5101 19.1663 25.5 19.1663ZM25.5 17.583C27.651 17.583 27.9194 17.5909 28.7633 17.6305C29.6064 17.6701 30.1804 17.8023 30.6855 17.9986C31.208 18.1997 31.6481 18.472 32.0883 18.9114C32.4908 19.3072 32.8023 19.7859 33.0011 20.3143C33.1966 20.8185 33.3296 21.3933 33.3692 22.2364C33.4064 23.0803 33.4167 23.3487 33.4167 25.4997C33.4167 27.6506 33.4088 27.919 33.3692 28.7629C33.3296 29.606 33.1966 30.18 33.0011 30.6851C32.8029 31.2137 32.4913 31.6926 32.0883 32.0879C31.6924 32.4903 31.2137 32.8018 30.6855 33.0007C30.1812 33.1963 29.6064 33.3293 28.7633 33.3688C27.9194 33.4061 27.651 33.4163 25.5 33.4163C23.3491 33.4163 23.0807 33.4084 22.2368 33.3688C21.3937 33.3293 20.8197 33.1963 20.3146 33.0007C19.786 32.8024 19.3072 32.4908 18.9118 32.0879C18.5092 31.6922 18.1977 31.2135 17.999 30.6851C17.8027 30.1808 17.6705 29.606 17.6309 28.7629C17.5937 27.919 17.5834 27.6506 17.5834 25.4997C17.5834 23.3487 17.5913 23.0803 17.6309 22.2364C17.6705 21.3925 17.8027 20.8193 17.999 20.3143C18.1971 19.7856 18.5087 19.3067 18.9118 18.9114C19.3074 18.5086 19.7861 18.1971 20.3146 17.9986C20.8197 17.8023 21.3929 17.6701 22.2368 17.6305C23.0807 17.5933 23.3491 17.583 25.5 17.583Z" fill="white"/>
</svg>
