<svg width="34" height="34" viewBox="0 0 34 34" fill="none" xmlns="http://www.w3.org/2000/svg">
<path opacity="0.5" d="M13.2515 9.8734C12.9749 9.59689 12.5265 9.59689 12.2499 9.8734L9.4165 12.7068C9.28322 12.8396 9.20832 13.0201 9.20825 13.2083V30.2083C9.20825 30.5995 9.52541 30.9166 9.91661 30.9166H15.5833C15.9745 30.9166 16.2916 30.5995 16.2916 30.2083V13.2083C16.2919 13.0203 16.2176 12.8398 16.0848 12.7068L13.2515 9.8734Z" fill="white"/>
<path opacity="0.5" d="M4.7511 13.1458C4.47452 12.9123 4.02614 12.9123 3.74949 13.1458L0.916136 15.5386C0.782859 15.6508 0.707952 15.8032 0.707886 15.9621V30.3185C0.707886 30.6489 1.02504 30.9167 1.41624 30.9167H7.08289C7.47409 30.9167 7.79124 30.6489 7.79124 30.3185V15.9621C7.79157 15.8033 7.7172 15.651 7.58439 15.5386L4.7511 13.1458Z" fill="white"/>
<path opacity="0.8" d="M21.7515 7.04015C21.4749 6.76363 21.0265 6.76363 20.7499 7.04015L17.9165 9.8735C17.7832 10.0064 17.7083 10.1868 17.7083 10.375V30.2083C17.7083 30.5995 18.0254 30.9167 18.4166 30.9167H24.0832C24.4744 30.9167 24.7916 30.5995 24.7916 30.2083V10.375C24.7919 10.187 24.7175 10.0066 24.5847 9.8735L21.7515 7.04015Z" fill="white"/>
<path d="M33.0849 5.6235L31.6682 4.20686C31.5352 4.07411 31.3547 3.99967 31.1667 4H29.75C29.562 3.99967 29.3816 4.07404 29.2485 4.20686L26.4152 7.04021C26.2824 7.17329 26.208 7.35372 26.2083 7.54171V30.2083C26.2083 30.5995 26.5255 30.9167 26.9167 30.9167H32.5833C32.9745 30.9167 33.2917 30.5995 33.2917 30.2083V6.125C33.292 5.937 33.2176 5.75658 33.0849 5.6235Z" fill="white"/>
</svg>
