<svg width="24" height="24" viewBox="0 0 24 24" fill="none" xmlns="http://www.w3.org/2000/svg">
<g clip-path="url(#clip0)">
<path d="M3.75 17.25H0.75C0.551088 17.25 0.360322 17.329 0.21967 17.4697C0.0790176 17.6103 0 17.8011 0 18L0 21C0 21.1989 0.0790176 21.3897 0.21967 21.5303C0.360322 21.671 0.551088 21.75 0.75 21.75H3.75C3.94891 21.75 4.13968 21.671 4.28033 21.5303C4.42098 21.3897 4.5 21.1989 4.5 21V18C4.5 17.8011 4.42098 17.6103 4.28033 17.4697C4.13968 17.329 3.94891 17.25 3.75 17.25ZM3.75 2.25H0.75C0.551088 2.25 0.360322 2.32902 0.21967 2.46967C0.0790176 2.61032 0 2.80109 0 3L0 6C0 6.19891 0.0790176 6.38968 0.21967 6.53033C0.360322 6.67098 0.551088 6.75 0.75 6.75H3.75C3.94891 6.75 4.13968 6.67098 4.28033 6.53033C4.42098 6.38968 4.5 6.19891 4.5 6V3C4.5 2.80109 4.42098 2.61032 4.28033 2.46967C4.13968 2.32902 3.94891 2.25 3.75 2.25ZM3.75 9.75H0.75C0.551088 9.75 0.360322 9.82902 0.21967 9.96967C0.0790176 10.1103 0 10.3011 0 10.5L0 13.5C0 13.6989 0.0790176 13.8897 0.21967 14.0303C0.360322 14.171 0.551088 14.25 0.75 14.25H3.75C3.94891 14.25 4.13968 14.171 4.28033 14.0303C4.42098 13.8897 4.5 13.6989 4.5 13.5V10.5C4.5 10.3011 4.42098 10.1103 4.28033 9.96967C4.13968 9.82902 3.94891 9.75 3.75 9.75ZM23.25 18H8.25C8.05109 18 7.86032 18.079 7.71967 18.2197C7.57902 18.3603 7.5 18.5511 7.5 18.75V20.25C7.5 20.4489 7.57902 20.6397 7.71967 20.7803C7.86032 20.921 8.05109 21 8.25 21H23.25C23.4489 21 23.6397 20.921 23.7803 20.7803C23.921 20.6397 24 20.4489 24 20.25V18.75C24 18.5511 23.921 18.3603 23.7803 18.2197C23.6397 18.079 23.4489 18 23.25 18ZM23.25 3H8.25C8.05109 3 7.86032 3.07902 7.71967 3.21967C7.57902 3.36032 7.5 3.55109 7.5 3.75V5.25C7.5 5.44891 7.57902 5.63968 7.71967 5.78033C7.86032 5.92098 8.05109 6 8.25 6H23.25C23.4489 6 23.6397 5.92098 23.7803 5.78033C23.921 5.63968 24 5.44891 24 5.25V3.75C24 3.55109 23.921 3.36032 23.7803 3.21967C23.6397 3.07902 23.4489 3 23.25 3ZM23.25 10.5H8.25C8.05109 10.5 7.86032 10.579 7.71967 10.7197C7.57902 10.8603 7.5 11.0511 7.5 11.25V12.75C7.5 12.9489 7.57902 13.1397 7.71967 13.2803C7.86032 13.421 8.05109 13.5 8.25 13.5H23.25C23.4489 13.5 23.6397 13.421 23.7803 13.2803C23.921 13.1397 24 12.9489 24 12.75V11.25C24 11.0511 23.921 10.8603 23.7803 10.7197C23.6397 10.579 23.4489 10.5 23.25 10.5Z" fill="#FFD467"/>
</g>
<defs>
<clipPath id="clip0">
<rect width="24" height="24" fill="white"/>
</clipPath>
</defs>
</svg>
