<svg width="51" height="51" viewBox="0 0 51 51" fill="none" xmlns="http://www.w3.org/2000/svg">
<circle cx="25.5" cy="25.2002" r="25" fill="#333333"/>
<g clip-path="url(#clip0_2_110)">
<path fill-rule="evenodd" clip-rule="evenodd" d="M33.3619 19.2936C33.21 19.1079 33.0059 18.9814 32.7851 18.9211C32.562 18.8608 32.3211 18.8679 32.0968 18.9507L18.2782 23.9266C18.0373 24.0141 17.8308 24.1654 17.6753 24.3558C17.521 24.5485 17.4201 24.7827 17.3881 25.0369C17.3572 25.2888 17.3976 25.5383 17.4984 25.7606C17.5993 25.9841 17.7619 26.1804 17.9744 26.3223L19.8544 27.5993C20.0704 27.7448 20.316 27.8276 20.5641 27.8406C20.7279 27.85 20.894 27.8299 21.0531 27.7814C21.0365 27.8666 21.0282 27.9553 21.0282 28.044V30.2505C21.0282 30.4751 21.0922 30.6915 21.205 30.8807C21.3189 31.0687 21.4803 31.2272 21.6821 31.3336C21.8827 31.44 22.1034 31.4885 22.3206 31.4791C22.5402 31.4696 22.7574 31.3998 22.9473 31.2757L24.1199 30.5012L25.27 31.2816C25.3827 31.3585 25.5073 31.4176 25.6367 31.4578C25.7696 31.498 25.9061 31.5193 26.0391 31.5193L26.1839 31.5098L26.3203 31.4885C26.4984 31.4519 26.6693 31.3774 26.8188 31.2745C26.9684 31.1716 27.0989 31.0356 27.1986 30.8772L33.4545 20.599C33.5803 20.3945 33.6349 20.1615 33.6195 19.9309C33.6029 19.7051 33.5162 19.4804 33.3619 19.2936ZM22.5716 27.6587V29.531L22.5768 29.5574L22.5979 29.5767L22.6275 29.5837L22.6539 29.5746L23.8924 28.7851C24.0106 28.7101 24.1445 28.6736 24.2754 28.6736L24.2796 28.6756C24.4146 28.6766 24.5497 28.7161 24.6636 28.7911L25.881 29.5888L25.9254 29.6101C25.9299 29.6107 25.9347 29.6114 25.9398 29.6121C25.9619 29.6153 25.9877 29.6191 26.0066 29.6142C26.033 29.6101 26.0562 29.6 26.0741 29.5878C26.0931 29.5736 26.11 29.5574 26.1216 29.5392L31.6275 20.8185L31.6307 20.8155L19.4372 25.0491C19.4056 25.0592 19.3792 25.0765 19.3613 25.0988C19.3444 25.1221 19.3317 25.1505 19.3286 25.1809C19.3243 25.2123 19.3296 25.2427 19.3412 25.268C19.3528 25.2924 19.3718 25.3147 19.3971 25.3309L21.0703 26.4296C21.0858 26.4402 21.103 26.4483 21.1212 26.4539L22.774 25.5856C22.9073 25.5158 23.0399 25.4879 23.1654 25.4924C23.3856 25.4131 23.5985 25.4521 23.7679 25.5559L23.7742 25.5579C23.8565 25.6096 23.9272 25.6816 23.981 25.7626C24.0359 25.8458 24.0728 25.938 24.0855 26.0363V26.0404C24.1134 26.252 24.044 26.4772 23.8247 26.6407C23.7739 26.7324 23.7002 26.8181 23.6001 26.8922L22.5716 27.6587Z" fill="white"/>
</g>
<defs>
<clipPath id="clip0_2_110">
<rect width="19" height="19" fill="white" transform="translate(16.5 16.2002)"/>
</clipPath>
</defs>
</svg>
