<svg width="35" height="35" viewBox="0 0 35 35" fill="none" xmlns="http://www.w3.org/2000/svg">
<circle cx="17.5" cy="17.5" r="17.5" fill="#FFD467"/>
<path d="M10.3749 10.375H24.625C24.8349 10.375 25.0363 10.4584 25.1847 10.6069C25.3332 10.7553 25.4166 10.9567 25.4166 11.1667V23.8333C25.4166 24.0433 25.3332 24.2447 25.1847 24.3931C25.0363 24.5416 24.8349 24.625 24.625 24.625H10.3749C10.165 24.625 9.96362 24.5416 9.81516 24.3931C9.66669 24.2447 9.58328 24.0433 9.58328 23.8333V11.1667C9.58328 10.9567 9.66669 10.7553 9.81516 10.6069C9.96362 10.4584 10.165 10.375 10.3749 10.375ZM23.8333 13.7301L17.5569 19.3509L11.1666 13.7127V23.0417H23.8333V13.7301ZM11.5712 11.9583L17.5482 17.2324L23.439 11.9583H11.5712Z" fill="#1C1C1C"/>
</svg>
