<svg width="35" height="35" viewBox="0 0 35 35" fill="none" xmlns="http://www.w3.org/2000/svg">
<circle cx="17.5" cy="17.5" r="17.5" fill="#FFD467"/>
<path d="M17.4948 9.5835C21.1861 9.5835 24.2292 12.5268 24.2292 16.1684C24.2292 18.0034 23.5618 19.707 22.4634 21.151C21.2516 22.7438 19.758 24.1315 18.0768 25.2208C17.692 25.4726 17.3447 25.4916 16.9224 25.2208C15.2317 24.1315 13.7381 22.7438 12.5366 21.151C11.4374 19.707 10.7708 18.0034 10.7708 16.1684C10.7708 12.5268 13.8139 9.5835 17.4948 9.5835ZM17.4948 14.1568C16.2742 14.1568 15.2788 15.163 15.2788 16.3734C15.2788 17.5933 16.2742 18.5528 17.4948 18.5528C18.7162 18.5528 19.7212 17.5933 19.7212 16.3734C19.7212 15.163 18.7162 14.1568 17.4948 14.1568Z" fill="#1C1C1C"/>
</svg>
