<svg width="35" height="35" viewBox="0 0 35 35" fill="none" xmlns="http://www.w3.org/2000/svg">
<circle cx="17.5" cy="17.5" r="17.5" fill="#FFD467"/>
<path d="M21.9776 19.3625C21.5138 19.2627 21.1469 19.478 20.822 19.6661C20.4893 19.8599 19.8567 20.3731 19.4941 20.2417C17.6375 19.4773 15.8913 17.8523 15.1354 15.9882C15.0022 15.6179 15.513 14.9812 15.7053 14.6446C15.892 14.3187 16.1029 13.9483 16.0067 13.4811C15.9198 13.0612 14.7956 11.6307 14.398 11.2395C14.1358 10.9811 13.8672 10.839 13.5915 10.816C12.5549 10.7715 11.3972 12.1546 11.1942 12.4855C10.6855 13.1911 10.6884 14.1299 11.2027 15.2683C12.4424 18.326 17.1309 22.9406 20.2001 24.2268C20.7665 24.4917 21.2844 24.6244 21.7496 24.6244C22.2049 24.6244 22.6102 24.4974 22.9586 24.2455C23.2215 24.094 24.6613 22.8788 24.6236 21.8144C24.6008 21.5431 24.459 21.2717 24.204 21.009C23.8157 20.6078 22.3944 19.45 21.9776 19.3625Z" fill="#1C1C1C"/>
</svg>
