<svg width="60" height="60" viewBox="0 0 60 60" fill="none" xmlns="http://www.w3.org/2000/svg">
<circle cx="30" cy="30" r="30" fill="#FFD467"/>
<path d="M39.9999 40L35.5139 35.506L39.9999 40ZM37.9999 29.5C37.9999 31.7543 37.1044 33.9163 35.5103 35.5104C33.9163 37.1045 31.7543 38 29.4999 38C27.2456 38 25.0836 37.1045 23.4895 35.5104C21.8955 33.9163 20.9999 31.7543 20.9999 29.5C20.9999 27.2457 21.8955 25.0837 23.4895 23.4896C25.0836 21.8955 27.2456 21 29.4999 21C31.7543 21 33.9163 21.8955 35.5103 23.4896C37.1044 25.0837 37.9999 27.2457 37.9999 29.5V29.5Z" stroke="#1C1C1C" stroke-width="2" stroke-linecap="round"/>
<path d="M29.4999 29.5H25.9999M29.4999 26V29.5V26ZM29.4999 29.5V33V29.5ZM29.4999 29.5H32.9999H29.4999Z" stroke="#1C1C1C" stroke-width="2" stroke-linecap="round"/>
</svg>
