<svg width="196" height="196" viewBox="0 0 196 196" fill="none" xmlns="http://www.w3.org/2000/svg">
<circle opacity="0.1" cx="98" cy="98" r="97.5" stroke="#FFD467"/>
<circle opacity="0.1" cx="98" cy="98" r="82.5" stroke="#FFD467"/>
<circle opacity="0.5" cx="98" cy="98" r="66" stroke="#FFD467" stroke-width="2"/>
<circle cx="98" cy="98" r="55" fill="#FFD467"/>
<path d="M114.659 108.225C113.363 106.929 111.849 105.87 110.187 105.099C112.531 103.2 114.027 100.301 114.027 97.0507C114.027 91.3159 109.245 86.6111 103.51 86.6991C97.8632 86.7871 93.3137 91.3884 93.3137 97.0507C93.3137 100.301 94.8147 103.2 97.1542 105.099C95.4912 105.87 93.9774 106.928 92.6823 108.225C89.8563 111.056 88.2518 114.793 88.1483 118.779C88.1469 118.834 88.1566 118.889 88.1768 118.94C88.197 118.992 88.2273 119.039 88.2658 119.078C88.3044 119.118 88.3505 119.149 88.4015 119.171C88.4524 119.192 88.5071 119.203 88.5624 119.203H91.4608C91.6834 119.203 91.8697 119.027 91.8749 118.804C91.9732 115.803 93.1895 112.992 95.3271 110.86C96.421 109.76 97.722 108.888 99.1551 108.295C100.588 107.701 102.125 107.398 103.676 107.402C106.828 107.402 109.793 108.629 112.024 110.86C114.157 112.992 115.373 115.803 115.476 118.804C115.482 119.027 115.668 119.203 115.89 119.203H118.789C118.844 119.203 118.899 119.192 118.95 119.171C119.001 119.149 119.047 119.118 119.085 119.078C119.124 119.039 119.154 118.992 119.174 118.94C119.195 118.889 119.204 118.834 119.203 118.779C119.099 114.793 117.495 111.056 114.659 108.225ZM103.676 103.676C101.906 103.676 100.239 102.987 98.9916 101.735C98.3656 101.114 97.8711 100.373 97.5376 99.5566C97.2041 98.7403 97.0385 97.8651 97.0506 96.9834C97.0662 95.2857 97.7442 93.645 98.9294 92.4287C100.172 91.1555 101.833 90.4464 103.608 90.4257C105.363 90.4102 107.066 91.0934 108.318 92.32C109.602 93.5777 110.306 95.2599 110.306 97.0507C110.306 98.8208 109.617 100.482 108.365 101.735C107.75 102.352 107.02 102.842 106.215 103.175C105.41 103.508 104.547 103.678 103.676 103.676ZM90.7103 98.4171C90.6637 97.9668 90.6378 97.5113 90.6378 97.0507C90.6378 96.2277 90.7155 95.4255 90.8604 94.6439C90.8966 94.4576 90.7983 94.2661 90.6275 94.1885C89.9236 93.8728 89.2766 93.438 88.7176 92.8894C88.059 92.2507 87.5406 91.4818 87.1958 90.6316C86.8509 89.7814 86.687 88.8687 86.7146 87.9517C86.7612 86.2902 87.4289 84.7116 88.5934 83.5212C89.8718 82.2117 91.5902 81.4975 93.4172 81.5182C95.0683 81.5337 96.6625 82.1703 97.8684 83.2986C98.2773 83.6816 98.6293 84.1061 98.9243 84.5615C99.0278 84.722 99.2296 84.7893 99.4056 84.7271C100.317 84.4114 101.279 84.1889 102.268 84.0854C102.558 84.0543 102.723 83.7437 102.594 83.485C100.912 80.1569 97.4751 77.8589 93.5001 77.7968C87.7601 77.7088 82.9777 82.4136 82.9777 88.1432C82.9777 91.3936 84.4735 94.292 86.8181 96.1915C85.1722 96.9523 83.6557 98.003 82.3411 99.3177C79.5047 102.149 77.9002 105.886 77.7967 109.876C77.7953 109.932 77.805 109.986 77.8252 110.038C77.8454 110.089 77.8757 110.136 77.9143 110.176C77.9529 110.215 77.999 110.247 78.0499 110.268C78.1008 110.29 78.1555 110.301 78.2108 110.301H81.1144C81.337 110.301 81.5233 110.125 81.5285 109.902C81.6268 106.9 82.8431 104.09 84.9807 101.957C86.5024 100.436 88.3657 99.3798 90.3998 98.8674C90.6016 98.8156 90.7362 98.6241 90.7103 98.4171Z" fill="#262626"/>
</svg>
